<svg width="412" height="892" viewBox="0 0 412 892" fill="none" xmlns="http://www.w3.org/2000/svg">
  <defs>
    <linearGradient id="primaryGradient" x1="0" y1="0" x2="412" y2="892" gradientUnits="userSpaceOnUse">
      <stop stop-color="#121316"/>
      <stop offset="1" stop-color="#181920"/>
    </linearGradient>
  </defs>

  <!-- Android Device Canvas (Pixel 8 / M3 Standard: 412x892) -->
  <rect width="412" height="892" rx="36" fill="url(#primaryGradient)"/>

  <!-- Android Status Bar -->
  <text x="24" y="34" fill="#E2E8F0" font-family="Roboto, -apple-system, sans-serif" font-size="14" font-weight="500">10:09</text>
  <g transform="translate(330, 22)">
    <circle cx="8" cy="8" r="4" fill="#E2E8F0"/>
    <rect x="22" y="2" width="12" height="12" rx="2" fill="#E2E8F0"/>
    <rect x="42" y="1" width="18" height="13" rx="3" stroke="#E2E8F0" stroke-width="1.5" fill="none"/>
    <rect x="44" y="3" width="12" height="9" rx="1.5" fill="#E2E8F0"/>
  </g>

  <!-- Top App Bar (Material 3 Large Title Style) -->
  <g transform="translate(20, 60)">
    <rect x="0" y="0" width="40" height="40" rx="20" fill="#282A31"/>
    <path d="M12 15H28M12 20H28M12 25H28" stroke="#E2E8F0" stroke-width="2" stroke-linecap="round"/>
    
    <text x="56" y="26" fill="#F8FAFC" font-family="Roboto, sans-serif" font-size="20" font-weight="700">SocialClone AI</text>
    
    <!-- Profile Avatar Pill -->
    <g transform="translate(332, 0)">
      <circle cx="20" cy="20" r="20" fill="#6366F1"/>
      <text x="20" y="25" fill="#FFFFFF" font-family="Roboto, sans-serif" font-size="14" font-weight="700" text-anchor="middle">SC</text>
      <circle cx="34" cy="8" r="5" fill="#10B981" stroke="#121316" stroke-width="2"/>
    </g>
  </g>

  <!-- CARD 1: M3 AI Credits Counter (Tonal Surface Container) -->
  <g transform="translate(20, 120)">
    <rect width="372" height="110" rx="28" fill="#1E1F25"/>
    <text x="24" y="36" fill="#94A3B8" font-family="Roboto, sans-serif" font-size="14" font-weight="500">Crédits IA Disponibles</text>
    
    <text x="24" y="82" fill="#FFFFFF" font-family="Roboto, sans-serif" font-size="38" font-weight="800">650</text>
    
    <!-- +50 Credits Offered Pill Badge -->
    <rect x="110" y="58" width="105" height="28" rx="14" fill="#10B981" fill-opacity="0.18"/>
    <text x="122" y="77" fill="#34D399" font-family="Roboto, sans-serif" font-size="12" font-weight="700">+50 Offerts</text>

    <!-- Refill Button (M3 Filled Pill) -->
    <rect x="252" y="52" width="96" height="38" rx="19" fill="#6366F1"/>
    <text x="278" y="76" fill="#FFFFFF" font-family="Roboto, sans-serif" font-size="14" font-weight="600">Recharger</text>
  </g>

  <!-- 2-COL GRID: Studio 9:16 & Smart Scheduler -->
  <!-- Col 1: Studio Prompt-to-Video 9:16 -->
  <g transform="translate(20, 246)">
    <rect width="178" height="280" rx="24" fill="#1E1F25"/>
    <text x="16" y="30" fill="#FFFFFF" font-family="Roboto, sans-serif" font-size="15" font-weight="600">Studio 9:16</text>
    
    <!-- 9:16 Video Miniature Box -->
    <rect x="16" y="44" width="146" height="160" rx="16" fill="#282A31"/>
    <circle cx="89" cy="114" r="26" fill="#6366F1" fill-opacity="0.85"/>
    <polygon points="84,104 98,114 84,124" fill="#FFFFFF"/>
    
    <text x="16" y="222" fill="#94A3B8" font-family="Roboto, sans-serif" font-size="11">TikTok • Reels • Shorts</text>
    
    <!-- M3 Button Pill -->
    <rect x="16" y="234" width="146" height="34" rx="17" fill="#312E81"/>
    <text x="46" y="256" fill="#C7D2FE" font-family="Roboto, sans-serif" font-size="12" font-weight="600">Générer Vidéo</text>
  </g>

  <!-- Col 2: Smart Scheduler Heatmap 7x4 -->
  <g transform="translate(214, 246)">
    <rect width="178" height="280" rx="24" fill="#1E1F25"/>
    <text x="16" y="30" fill="#FFFFFF" font-family="Roboto, sans-serif" font-size="15" font-weight="600">Smart Scheduler</text>
    <text x="16" y="46" fill="#94A3B8" font-family="Roboto, sans-serif" font-size="10">Pics d'Audience 7x4</text>

    <!-- Heatmap Grid 7x4 -->
    <g transform="translate(16, 60)">
      <!-- Row 1 -->
      <rect x="0" y="0" width="18" height="18" rx="4" fill="#312E81"/>
      <rect x="22" y="0" width="18" height="18" rx="4" fill="#4338CA"/>
      <rect x="44" y="0" width="18" height="18" rx="4" fill="#6366F1"/>
      <rect x="66" y="0" width="18" height="18" rx="4" fill="#4338CA"/>
      <rect x="88" y="0" width="18" height="18" rx="4" fill="#818CF8"/>
      <rect x="110" y="0" width="18" height="18" rx="4" fill="#6366F1"/>
      <rect x="128" y="0" width="18" height="18" rx="4" fill="#4338CA"/>

      <!-- Row 2 -->
      <rect x="0" y="22" width="18" height="18" rx="4" fill="#1E1B4B"/>
      <rect x="22" y="22" width="18" height="18" rx="4" fill="#312E81"/>
      <rect x="44" y="22" width="18" height="18" rx="4" fill="#4338CA"/>
      <rect x="66" y="22" width="18" height="18" rx="4" fill="#818CF8"/>
      <rect x="88" y="22" width="18" height="18" rx="4" fill="#6366F1"/>
      <rect x="110" y="22" width="18" height="18" rx="4" fill="#4338CA"/>
      <rect x="128" y="22" width="18" height="18" rx="4" fill="#312E81"/>

      <!-- Row 3 -->
      <rect x="0" y="44" width="18" height="18" rx="4" fill="#312E81"/>
      <rect x="22" y="44" width="18" height="18" rx="4" fill="#6366F1"/>
      <rect x="44" y="44" width="18" height="18" rx="4" fill="#A5B4FC"/>
      <rect x="66" y="44" width="18" height="18" rx="4" fill="#6366F1"/>
      <rect x="88" y="44" width="18" height="18" rx="4" fill="#4338CA"/>
      <rect x="110" y="44" width="18" height="18" rx="4" fill="#312E81"/>
      <rect x="128" y="44" width="18" height="18" rx="4" fill="#1E1B4B"/>

      <!-- Row 4 -->
      <rect x="0" y="66" width="18" height="18" rx="4" fill="#4338CA"/>
      <rect x="22" y="66" width="18" height="18" rx="4" fill="#6366F1"/>
      <rect x="44" y="66" width="18" height="18" rx="4" fill="#818CF8"/>
      <rect x="66" y="66" width="18" height="18" rx="4" fill="#A5B4FC"/>
      <rect x="88" y="66" width="18" height="18" rx="4" fill="#818CF8"/>
      <rect x="110" y="66" width="18" height="18" rx="4" fill="#6366F1"/>
      <rect x="128" y="66" width="18" height="18" rx="4" fill="#4338CA"/>
    </g>

    <text x="16" y="180" fill="#E2E8F0" font-family="Roboto, sans-serif" font-size="12" font-weight="600">Top Créneau :</text>
    <text x="16" y="198" fill="#A5B4FC" font-family="Roboto, sans-serif" font-size="12">Mardi &amp; Jeudi 19h00</text>

    <!-- Auto-Placer Button -->
    <rect x="16" y="234" width="146" height="34" rx="17" fill="#6366F1"/>
    <text x="46" y="256" fill="#FFFFFF" font-family="Roboto, sans-serif" font-size="12" font-weight="600">⚡ Auto-Placer</text>
  </g>

  <!-- CARD 3: Recent Activity & Clones -->
  <g transform="translate(20, 542)">
    <rect width="372" height="220" rx="28" fill="#1E1F25"/>
    <text x="24" y="34" fill="#FFFFFF" font-family="Roboto, sans-serif" font-size="16" font-weight="600">Derniers Posts &amp; DMs Traités</text>

    <!-- Post row 1 -->
    <g transform="translate(24, 52)">
      <rect x="0" y="0" width="44" height="44" rx="12" fill="#E1306C" fill-opacity="0.2"/>
      <text x="12" y="28" fill="#E1306C" font-family="Roboto, sans-serif" font-size="18">📸</text>
      <text x="56" y="18" fill="#FFFFFF" font-family="Roboto, sans-serif" font-size="13" font-weight="600">Carrousel 3-Slides IA</text>
      <text x="56" y="36" fill="#94A3B8" font-family="Roboto, sans-serif" font-size="11">Programmé • Demain 18h30</text>
      <rect x="250" y="10" width="68" height="24" rx="12" fill="#10B981" fill-opacity="0.2"/>
      <text x="262" y="26" fill="#34D399" font-family="Roboto, sans-serif" font-size="10" font-weight="700">Tier 1 Auto</text>
    </g>

    <!-- Post row 2 -->
    <g transform="translate(24, 108)">
      <rect x="0" y="0" width="44" height="44" rx="12" fill="#000000"/>
      <text x="12" y="28" fill="#FFFFFF" font-family="Roboto, sans-serif" font-size="18">🎵</text>
      <text x="56" y="18" fill="#FFFFFF" font-family="Roboto, sans-serif" font-size="13" font-weight="600">TikTok Script 9:16</text>
      <text x="56" y="36" fill="#94A3B8" font-family="Roboto, sans-serif" font-size="11">Safe-Zone validée • Hook 3s</text>
      <rect x="250" y="10" width="68" height="24" rx="12" fill="#6366F1" fill-opacity="0.25"/>
      <text x="264" y="26" fill="#A5B4FC" font-family="Roboto, sans-serif" font-size="10" font-weight="700">Prêt (Copie)</text>
    </g>

    <!-- DM Status row 3 -->
    <g transform="translate(24, 164)">
      <rect x="0" y="0" width="44" height="44" rx="12" fill="#10B981" fill-opacity="0.2"/>
      <text x="12" y="28" fill="#10B981" font-family="Roboto, sans-serif" font-size="18">💬</text>
      <text x="56" y="18" fill="#FFFFFF" font-family="Roboto, sans-serif" font-size="13" font-weight="600">Copilote DM (14 nouveaux)</text>
      <text x="56" y="36" fill="#94A3B8" font-family="Roboto, sans-serif" font-size="11">Délai moyen de réponse : 4 min</text>
    </g>
  </g>

  <!-- Material 3 Expressive Navigation Bar -->
  <g transform="translate(0, 782)">
    <rect width="412" height="86" fill="#1A1B20"/>
    
    <!-- Tab 1: Dashboard (Active Pill Indicator) -->
    <g transform="translate(36, 12)">
      <rect x="0" y="0" width="64" height="32" rx="16" fill="#312E81"/>
      <circle cx="32" cy="16" r="8" fill="#C7D2FE"/>
      <text x="32" y="48" fill="#FFFFFF" font-family="Roboto, sans-serif" font-size="11" font-weight="700" text-anchor="middle">Dashboard</text>
    </g>

    <!-- Tab 2: Studio -->
    <g transform="translate(120, 12)">
      <circle cx="32" cy="16" r="8" stroke="#94A3B8" stroke-width="1.8" fill="none"/>
      <text x="32" y="48" fill="#94A3B8" font-family="Roboto, sans-serif" font-size="11" font-weight="500" text-anchor="middle">Studio</text>
    </g>

    <!-- Tab 3: Planning -->
    <g transform="translate(204, 12)">
      <rect x="24" y="8" width="16" height="16" rx="4" stroke="#94A3B8" stroke-width="1.8" fill="none"/>
      <text x="32" y="48" fill="#94A3B8" font-family="Roboto, sans-serif" font-size="11" font-weight="500" text-anchor="middle">Planning</text>
    </g>

    <!-- Tab 4: Clone -->
    <g transform="translate(288, 12)">
      <circle cx="32" cy="16" r="8" stroke="#94A3B8" stroke-width="1.8" fill="none"/>
      <text x="32" y="48" fill="#94A3B8" font-family="Roboto, sans-serif" font-size="11" font-weight="500" text-anchor="middle">Clone</text>
    </g>
  </g>

  <!-- Android Bottom Pill Navigation Gesture Line -->
  <rect x="166" y="876" width="80" height="4" rx="2" fill="#E2E8F0" fill-opacity="0.4"/>
</svg>
